<svg xmlns="http://www.w3.org/2000/svg" xmlns:xlink="http://www.w3.org/1999/xlink" width="512" height="512" viewBox="0 0 512 512" fill="none"><defs><filter id="noise" opacity="0"><feTurbulence type="fractalNoise" baseFrequency="19.5" numOctaves="10" result="turbulence"></feTurbulence><feComposite operator="in" in="turbulence" in2="SourceAlpha" result="composite"></feComposite><feColorMatrix in="composite" type="luminanceToAlpha"></feColorMatrix><feBlend in="SourceGraphic" in2="composite" mode="color-burn"></feBlend></filter><linearGradient id="linearGradient" gradientUnits="userSpaceOnUse" gradientTransform="rotate(45)" style="transform-origin: center center 0px;"><stop stop-color="#dc8add"></stop><stop offset="1" stop-color="#8ff0a4"></stop></linearGradient><radialGradient id="radialGradient" cx="50%" cy="50%" r="100%" fx="50%" fy="0%" gradientUnits="objectBoundingBox"><stop stop-color="#dc8add"></stop><stop offset="1" stop-color="#8ff0a4"></stop></radialGradient><radialGradient id="radialGlare" cx="0" cy="0" r="1" gradientUnits="userSpaceOnUse" gradientTransform="translate(256) rotate(90) scale(512)"><stop stop-color="white"></stop><stop offset="1" stop-color="white" stop-opacity="0"></stop></radialGradient><clipPath id="image-clip"><use xlink:href="#image"></use></clipPath></defs><rect id="image" width="512" height="512" rx="32" ry="32" fill="url(#linearGradient)" stroke="#FFFFFF" stroke-width="0" stroke-opacity="100%" paint-order="stroke"></rect><g transform="rotate(0 0 0)" style="transform-origin: 256px 256px 0px;"><svg xmlns="http://www.w3.org/2000/svg" width="400" height="400" viewBox="0 0 24 24" fill="none" stroke="#f9f06b" stroke-width="1" stroke-linecap="round" stroke-linejoin="round" class="lucide lucide-banana" x="56" y="56"><path d="M4 13c3.5-2 8-2 10 2a5.5 5.5 0 0 1 8 5"></path><path d="M5.15 17.89c5.52-1.52 8.65-6.89 7-12C11.55 4 11.5 2 13 2c3.22 0 5 5.5 5 8 0 6.5-4.2 12-10.49 12C5.11 22 2 22 2 20c0-1.5 1.14-1.55 3.15-2.11Z"></path></svg></g><image href="data:image/svg+xml,%3csvg%20viewBox='0%200%20400%20400'%20xmlns='http://www.w3.org/2000/svg'%3e%3cfilter%20id='noiseFilter'%3e%3cfeTurbulence%20type='fractalNoise'%20baseFrequency='1.73'%20numOctaves='3'%20stitchTiles='stitch'/%3e%3c/filter%3e%3crect%20width='100%25'%20height='100%25'%20filter='url(%23noiseFilter)'/%3e%3c/svg%3e" width="512" height="512" rx="32" ry="32" opacity="0%" clip-path="url(#image-clip)"></image></svg>
