<?xml version="1.0" standalone="no"?>
<!DOCTYPE svg PUBLIC "-//W3C//DTD SVG 20010904//EN"
 "http://www.w3.org/TR/2001/REC-SVG-20010904/DTD/svg10.dtd">
<svg version="1.0" xmlns="http://www.w3.org/2000/svg"
 width="385.000000pt" height="382.000000pt" viewBox="0 0 385.000000 382.000000"
 preserveAspectRatio="xMidYMid meet">

<defs>
  <linearGradient id="grad" x1="0%" y1="100%" x2="100%" y2="0%">
    <stop offset="0%" style="stop-color:#ec4899;stop-opacity:1" /> <!-- pink-500 -->
    <stop offset="50%" style="stop-color:#9333ea;stop-opacity:1" /> <!-- purple-600 -->
    <stop offset="100%" style="stop-color:#2563eb;stop-opacity:1" /> <!-- blue-600 -->
  </linearGradient>
</defs>

<rect width="100%" height="100%" fill="white" rx="15%" ry="15%" />
<g transform="translate(0.000000,382.000000) scale(0.100000,-0.100000)"
fill="url(#grad)" stroke="none">
<path d="M288 3806 c-139 -50 -240 -169 -268 -316 -14 -73 -14 -3097 0 -3171
23 -120 108 -232 217 -286 l58 -28 1635 0 1635 0 56 29 c111 56 195 168 219
291 8 44 10 487 8 1625 l-3 1565 -22 53 c-29 72 -88 146 -148 187 -102 70 33
65 -1744 65 -1295 -1 -1613 -3 -1643 -14z m1826 -1313 c23 -61 209 -575 322
-893 25 -69 61 -167 80 -218 19 -51 34 -95 34 -97 0 -3 -65 -5 -144 -5 l-145
0 -19 53 c-11 28 -31 89 -46 135 l-28 82 -243 0 -243 0 -44 -132 -45 -133
-146 -3 c-81 -1 -147 -1 -147 1 0 2 39 109 86 238 47 128 100 277 119 329 18
52 61 172 95 265 34 94 79 220 100 280 21 61 43 122 49 138 l11 27 164 0 164
0 26 -67z"/>
<path d="M1846 2028 c-42 -123 -76 -229 -76 -236 0 -9 39 -12 159 -12 l160 0
-79 231 c-43 127 -81 233 -83 235 -2 3 -38 -96 -81 -218z"/>
</g>
</svg>
